<svg width="28" height="28" viewBox="0 0 28 28" fill="none" xmlns="http://www.w3.org/2000/svg">
<path fill-rule="evenodd" clip-rule="evenodd" d="M8.31323 2.29091L11.3789 6.6691H17.4586L14.393 2.29091H8.31323ZM25.7091 6.6691H20.2553L17.1897 2.29091H21.6364C23.8857 2.29091 25.7091 4.11433 25.7091 6.36364V6.6691ZM8.58219 6.6691L5.57058 2.36807C3.7009 2.73708 2.29091 4.3857 2.29091 6.36364V6.6691H8.58219ZM2.29091 21.6364V8.96001H25.7091V21.6364C25.7091 23.8857 23.8857 25.7091 21.6364 25.7091H6.36364C4.11433 25.7091 2.29091 23.8857 2.29091 21.6364ZM6.36364 0C2.8491 0 0 2.8491 0 6.36364V21.6364C0 25.1509 2.8491 28 6.36364 28H21.6364C25.1509 28 28 25.1509 28 21.6364V6.36364C28 2.8491 25.1509 0 21.6364 0H6.36364ZM18.0473 18.7168C18.8957 18.2269 18.8958 17.0022 18.0473 16.5123L12.6254 13.382C11.777 12.8922 10.7164 13.5045 10.7164 14.4843V20.7448C10.7164 21.7246 11.777 22.3369 12.6254 21.847L18.0473 18.7168Z" fill="white"/>
</svg>
