<svg width="30" height="30" viewBox="0 0 30 30" fill="none" xmlns="http://www.w3.org/2000/svg">
<path fill-rule="evenodd" clip-rule="evenodd" d="M3.02437 27.1519L8.15192 27.2416V21.0512C8.15192 19.5415 8.75391 18.0898 9.83148 17.0166C10.2572 16.5926 10.7588 16.2951 11.1114 16.108C11.5057 15.8986 11.9303 15.7153 12.3361 15.5644C13.0415 15.302 14.087 14.9888 15 14.9888C15.913 14.9888 16.9585 15.302 17.6639 15.5644C18.0697 15.7153 18.4943 15.8986 18.8886 16.108C19.2412 16.2951 19.7428 16.5926 20.1685 17.0166C21.2461 18.0898 21.8481 19.5415 21.8481 21.0512V27.2416L26.9756 27.1519H27C27.0583 27.1519 27.118 27.129 27.165 27.0822C27.2127 27.0347 27.2428 26.9664 27.2428 26.8913V13.7383L15 3.28673L2.75717 13.7383V26.8913C2.75717 26.9664 2.78732 27.0347 2.83497 27.0822C2.88199 27.129 2.94173 27.1519 3 27.1519H3.02437ZM0 12.4895L14.35 0.239098C14.5311 0.0847933 14.7616 0 15 0C15.2384 0 15.4689 0.0847933 15.65 0.239098L30 12.4895V26.8913C30 27.6837 29.6839 28.4437 29.1213 29.004C28.5587 29.5644 27.7957 29.8792 27 29.8792L20.0909 30C19.8257 30 19.5713 29.8951 19.3838 29.7083C19.1963 29.5215 19.0909 29.2682 19.0909 29.004V21.0512C19.0909 20.2588 18.7748 19.4988 18.2122 18.9385C17.6496 18.3781 15.7957 17.7161 15 17.7161C14.2044 17.7161 12.3504 18.3781 11.7878 18.9385C11.2252 19.4988 10.9091 20.2588 10.9091 21.0512V29.004C10.9091 29.2682 10.8037 29.5215 10.6162 29.7083C10.4287 29.8951 10.1743 30 9.90909 30L3 29.8792C2.20435 29.8792 1.44129 29.5644 0.87868 29.004C0.31607 28.4437 0 27.6837 0 26.8913V12.4895Z" fill="#8E8E93"/>
</svg>
