<svg width="35" height="35" viewBox="0 0 35 35" fill="none" xmlns="http://www.w3.org/2000/svg">
<path d="M7.29167 30.625C6.48958 30.625 5.79688 30.3455 5.21354 29.7865C4.65451 29.2031 4.375 28.5104 4.375 27.7083V7.29167C4.375 6.48958 4.65451 5.80903 5.21354 5.25C5.79688 4.66667 6.48958 4.375 7.29167 4.375H27.7083C28.5104 4.375 29.191 4.66667 29.75 5.25C30.3333 5.80903 30.625 6.48958 30.625 7.29167V27.7083C30.625 28.5104 30.3333 29.2031 29.75 29.7865C29.191 30.3455 28.5104 30.625 27.7083 30.625H7.29167ZM17.5 23.3333C18.4236 23.3333 19.2622 23.066 20.0156 22.5313C20.7691 21.9965 21.2917 21.2917 21.5833 20.4167H27.7083V7.29167H7.29167V20.4167H13.4167C13.7083 21.2917 14.2309 21.9965 14.9844 22.5313C15.7378 23.066 16.5764 23.3333 17.5 23.3333Z" fill="#8E8E93"/>
</svg>
