<svg width="32" height="32" viewBox="0 0 32 32" fill="none" xmlns="http://www.w3.org/2000/svg">
<path fill-rule="evenodd" clip-rule="evenodd" d="M22.857 12.8437C22.857 16.6049 19.787 19.6539 15.9999 19.6539C12.2128 19.6539 9.14272 16.6049 9.14272 12.8437C9.14272 9.08249 12.2128 6.03345 15.9999 6.03345C19.787 6.03345 22.857 9.08249 22.857 12.8437ZM20.6602 12.8437C20.6602 15.3999 18.5737 17.4721 15.9999 17.4721C13.426 17.4721 11.3396 15.3999 11.3396 12.8437C11.3396 10.2875 13.426 8.21527 15.9999 8.21527C18.5737 8.21527 20.6602 10.2875 20.6602 12.8437Z" fill="#8E8E93"/>
<path fill-rule="evenodd" clip-rule="evenodd" d="M7.11088 2.69649C9.74207 0.938384 12.8355 0 16 0C20.242 0.00483968 24.3088 1.6921 27.3084 4.69164C30.3079 7.69117 31.9952 11.758 32 16C32 19.1645 31.0616 22.2579 29.3035 24.8891C27.5454 27.5203 25.0466 29.5711 22.1229 30.7821C19.1993 31.9931 15.9823 32.3099 12.8786 31.6926C9.77486 31.0752 6.92394 29.5513 4.6863 27.3137C2.44866 25.0761 0.924806 22.2251 0.307443 19.1214C-0.309921 16.0177 0.00693252 12.8007 1.21793 9.87706C2.42894 6.95345 4.4797 4.45459 7.11088 2.69649ZM9.14286 26.2857V27.8594C11.2238 29.0745 13.5903 29.7148 16 29.7148C18.4097 29.7148 20.7762 29.0745 22.8571 27.8594V26.2857C22.8562 25.3767 22.4947 24.5051 21.8519 23.8623C21.2092 23.2196 20.3376 22.858 19.4286 22.8571H12.5714C11.6624 22.858 10.7909 23.2196 10.1481 23.8623C9.50529 24.5051 9.14377 25.3767 9.14286 26.2857ZM23.433 22.219C24.5002 23.272 25.1109 24.7021 25.1337 26.2011C27.2062 24.3506 28.6689 21.9141 29.3259 19.2145C29.9829 16.5148 29.8045 13.6792 28.8141 11.0833C27.8238 8.48728 26.0683 6.25333 23.7801 4.67722C21.492 3.1011 18.779 2.25717 16.0006 2.25717C13.2221 2.25717 10.5092 3.1011 8.221 4.67722C5.93283 6.25333 4.17735 8.48728 3.18702 11.0833C2.19669 13.6792 2.01822 16.5148 2.67525 19.2145C3.33227 21.9141 4.79379 24.3506 6.86629 26.2011C6.88907 24.7021 7.49982 23.272 8.56696 22.219C9.63411 21.1659 11.0722 20.5742 12.5714 20.5714H19.4286C20.9278 20.5742 22.3659 21.1659 23.433 22.219Z" fill="#8E8E93"/>
</svg>
