<svg width="30" height="30" viewBox="0 0 30 30" fill="none" xmlns="http://www.w3.org/2000/svg">
<path fill-rule="evenodd" clip-rule="evenodd" d="M2.72727 13.052C2.72727 7.34979 7.34979 2.72727 13.0519 2.72727C18.7541 2.72727 23.3766 7.34979 23.3766 13.052C23.3766 18.7541 18.7541 23.3766 13.0519 23.3766C7.34979 23.3766 2.72727 18.7541 2.72727 13.052ZM13.0519 0C5.84355 0 0 5.84356 0 13.052C0 20.2603 5.84355 26.1039 13.0519 26.1039C16.165 26.1039 19.0234 25.0141 21.2666 23.1951L27.6721 29.6006C28.2047 30.1331 29.0681 30.1331 29.6006 29.6006C30.1331 29.0681 30.1331 28.2047 29.6006 27.6721L23.1951 21.2666C25.014 19.0234 26.1039 16.165 26.1039 13.052C26.1039 5.84356 20.2603 0 13.0519 0Z" fill="#999999"/>
</svg>
