<svg width="12" height="12" viewBox="0 0 12 12" fill="none" xmlns="http://www.w3.org/2000/svg">
<path d="M3.16531 5.12497L5.19756 0.625C5.60179 0.625 5.98948 0.783035 6.27532 1.06434C6.56116 1.34564 6.72174 1.72717 6.72174 2.12499V4.12498H9.59737C9.74466 4.12334 9.89055 4.15323 10.0249 4.21259C10.1593 4.27194 10.279 4.35934 10.3756 4.46873C10.4723 4.57812 10.5436 4.70689 10.5847 4.8461C10.6258 4.98531 10.6356 5.13165 10.6135 5.27497L9.91237 9.77494C9.87562 10.0134 9.75255 10.2307 9.56582 10.3869C9.3791 10.5431 9.1413 10.6277 8.89625 10.6249H3.16531M3.16531 5.12497V10.6249M3.16531 5.12497H1.64112C1.37163 5.12497 1.11318 5.23033 0.922616 5.41786C0.732056 5.6054 0.625 5.85975 0.625 6.12496V9.62494C0.625 9.89016 0.732056 10.1445 0.922616 10.332C1.11318 10.5196 1.37163 10.6249 1.64112 10.6249H3.16531" stroke="white" stroke-width="1.25" stroke-linecap="round" stroke-linejoin="round"/>
</svg>
